<mxfile host="65bd71144e">
    <diagram id="VvRozGWxQbR5gVKz2xPQ" name="第 1 页">
        <mxGraphModel dx="1213" dy="784" grid="0" gridSize="10" guides="1" tooltips="1" connect="1" arrows="1" fold="1" page="0" pageScale="1" pageWidth="2336" pageHeight="1654" background="none" math="0" shadow="0">
            <root>
                <mxCell id="0"/>
                <mxCell id="1" parent="0"/>
                <mxCell id="W5GlPM54YrS_CDvLuqvn-8" style="edgeStyle=none;html=1;exitX=1;exitY=1;exitDx=0;exitDy=0;entryX=0;entryY=0;entryDx=0;entryDy=0;" edge="1" parent="1" source="2" target="W5GlPM54YrS_CDvLuqvn-5">
                    <mxGeometry relative="1" as="geometry"/>
                </mxCell>
                <mxCell id="2" value="" style="rounded=1;whiteSpace=wrap;html=1;" vertex="1" parent="1">
                    <mxGeometry x="1651" y="85" width="120" height="60" as="geometry"/>
                </mxCell>
                <mxCell id="W5GlPM54YrS_CDvLuqvn-2" value="" style="verticalLabelPosition=bottom;verticalAlign=top;html=1;shadow=0;dashed=0;strokeWidth=1;shape=mxgraph.android.phone2;strokeColor=#c0c0c0;" vertex="1" parent="1">
                    <mxGeometry x="210" y="193" width="200" height="390" as="geometry"/>
                </mxCell>
                <mxCell id="W5GlPM54YrS_CDvLuqvn-9" style="edgeStyle=none;html=1;exitX=1;exitY=0;exitDx=0;exitDy=0;entryX=0;entryY=1;entryDx=0;entryDy=0;" edge="1" parent="1" source="W5GlPM54YrS_CDvLuqvn-3" target="W5GlPM54YrS_CDvLuqvn-5">
                    <mxGeometry relative="1" as="geometry"/>
                </mxCell>
                <mxCell id="W5GlPM54YrS_CDvLuqvn-3" value="" style="rounded=1;whiteSpace=wrap;html=1;" vertex="1" parent="1">
                    <mxGeometry x="1651" y="332" width="120" height="60" as="geometry"/>
                </mxCell>
                <mxCell id="W5GlPM54YrS_CDvLuqvn-10" style="edgeStyle=none;html=1;entryX=1;entryY=0.5;entryDx=0;entryDy=0;" edge="1" parent="1" source="W5GlPM54YrS_CDvLuqvn-4" target="W5GlPM54YrS_CDvLuqvn-5">
                    <mxGeometry relative="1" as="geometry"/>
                </mxCell>
                <mxCell id="W5GlPM54YrS_CDvLuqvn-11" style="edgeStyle=none;html=1;exitX=0.5;exitY=0;exitDx=0;exitDy=0;entryX=1;entryY=0.5;entryDx=0;entryDy=0;" edge="1" parent="1" source="W5GlPM54YrS_CDvLuqvn-4" target="2">
                    <mxGeometry relative="1" as="geometry">
                        <mxPoint x="1781.2751131924715" y="110.6713922674005" as="targetPoint"/>
                    </mxGeometry>
                </mxCell>
                <mxCell id="W5GlPM54YrS_CDvLuqvn-12" style="edgeStyle=none;html=1;exitX=0.5;exitY=1;exitDx=0;exitDy=0;entryX=1;entryY=0.5;entryDx=0;entryDy=0;" edge="1" parent="1" source="W5GlPM54YrS_CDvLuqvn-4" target="W5GlPM54YrS_CDvLuqvn-3">
                    <mxGeometry relative="1" as="geometry"/>
                </mxCell>
                <mxCell id="W5GlPM54YrS_CDvLuqvn-4" value="" style="rounded=1;whiteSpace=wrap;html=1;" vertex="1" parent="1">
                    <mxGeometry x="2208" y="200" width="120" height="60" as="geometry"/>
                </mxCell>
                <mxCell id="W5GlPM54YrS_CDvLuqvn-5" value="" style="rounded=1;whiteSpace=wrap;html=1;" vertex="1" parent="1">
                    <mxGeometry x="1940" y="200" width="120" height="60" as="geometry"/>
                </mxCell>
                <mxCell id="W5GlPM54YrS_CDvLuqvn-16" value="" style="rounded=1;whiteSpace=wrap;html=1;" vertex="1" parent="1">
                    <mxGeometry x="1598" y="713" width="187" height="224" as="geometry"/>
                </mxCell>
                <mxCell id="W5GlPM54YrS_CDvLuqvn-18" value="" style="rounded=1;whiteSpace=wrap;html=1;" vertex="1" parent="1">
                    <mxGeometry x="1957" y="414" width="120" height="60" as="geometry"/>
                </mxCell>
                <mxCell id="W5GlPM54YrS_CDvLuqvn-19" value="" style="rounded=1;whiteSpace=wrap;html=1;" vertex="1" parent="1">
                    <mxGeometry x="1957" y="531" width="120" height="60" as="geometry"/>
                </mxCell>
                <mxCell id="W5GlPM54YrS_CDvLuqvn-20" value="" style="rounded=1;whiteSpace=wrap;html=1;" vertex="1" parent="1">
                    <mxGeometry x="1957" y="665" width="120" height="60" as="geometry"/>
                </mxCell>
                <mxCell id="W5GlPM54YrS_CDvLuqvn-21" value="" style="shape=curlyBracket;whiteSpace=wrap;html=1;rounded=1;labelPosition=left;verticalLabelPosition=middle;align=right;verticalAlign=middle;" vertex="1" parent="1">
                    <mxGeometry x="1905" y="449" width="20" height="260" as="geometry"/>
                </mxCell>
                <mxCell id="W5GlPM54YrS_CDvLuqvn-22" value="" style="sketch=0;outlineConnect=0;fontColor=#232F3E;gradientColor=none;fillColor=#232F3D;strokeColor=none;dashed=0;verticalLabelPosition=bottom;verticalAlign=top;align=center;html=1;fontSize=12;fontStyle=0;aspect=fixed;pointerEvents=1;shape=mxgraph.aws4.mobile_client;" vertex="1" parent="1">
                    <mxGeometry x="227" y="642" width="152.96" height="291" as="geometry"/>
                </mxCell>
                <mxCell id="W5GlPM54YrS_CDvLuqvn-25" value="" style="rounded=1;whiteSpace=wrap;html=1;" vertex="1" parent="1">
                    <mxGeometry x="1985" y="791" width="120" height="60" as="geometry"/>
                </mxCell>
                <mxCell id="W5GlPM54YrS_CDvLuqvn-26" value="" style="rounded=1;whiteSpace=wrap;html=1;" vertex="1" parent="1">
                    <mxGeometry x="1985" y="908" width="120" height="60" as="geometry"/>
                </mxCell>
                <mxCell id="W5GlPM54YrS_CDvLuqvn-27" value="" style="rounded=1;whiteSpace=wrap;html=1;" vertex="1" parent="1">
                    <mxGeometry x="1985" y="1042" width="120" height="60" as="geometry"/>
                </mxCell>
                <mxCell id="W5GlPM54YrS_CDvLuqvn-28" value="" style="shape=curlyBracket;whiteSpace=wrap;html=1;rounded=1;labelPosition=left;verticalLabelPosition=middle;align=right;verticalAlign=middle;" vertex="1" parent="1">
                    <mxGeometry x="1933" y="826" width="20" height="356" as="geometry"/>
                </mxCell>
                <mxCell id="W5GlPM54YrS_CDvLuqvn-29" value="" style="rounded=1;whiteSpace=wrap;html=1;" vertex="1" parent="1">
                    <mxGeometry x="1643" y="1222" width="120" height="60" as="geometry"/>
                </mxCell>
                <mxCell id="W5GlPM54YrS_CDvLuqvn-30" value="" style="rounded=1;whiteSpace=wrap;html=1;" vertex="1" parent="1">
                    <mxGeometry x="250" y="1083" width="120" height="60" as="geometry"/>
                </mxCell>
                <mxCell id="W5GlPM54YrS_CDvLuqvn-31" value="" style="rounded=1;whiteSpace=wrap;html=1;" vertex="1" parent="1">
                    <mxGeometry x="1985" y="1142" width="120" height="60" as="geometry"/>
                </mxCell>
                <mxCell id="W5GlPM54YrS_CDvLuqvn-32" value="" style="rounded=1;whiteSpace=wrap;html=1;" vertex="1" parent="1">
                    <mxGeometry x="2220" y="851" width="120" height="60" as="geometry"/>
                </mxCell>
                <mxCell id="W5GlPM54YrS_CDvLuqvn-33" value="" style="rounded=1;whiteSpace=wrap;html=1;" vertex="1" parent="1">
                    <mxGeometry x="2224" y="941" width="120" height="60" as="geometry"/>
                </mxCell>
                <mxCell id="W5GlPM54YrS_CDvLuqvn-34" value="" style="rounded=1;whiteSpace=wrap;html=1;" vertex="1" parent="1">
                    <mxGeometry x="2428" y="941" width="120" height="60" as="geometry"/>
                </mxCell>
                <mxCell id="W5GlPM54YrS_CDvLuqvn-35" value="" style="rounded=1;whiteSpace=wrap;html=1;" vertex="1" parent="1">
                    <mxGeometry x="2229" y="1057" width="120" height="60" as="geometry"/>
                </mxCell>
                <mxCell id="W5GlPM54YrS_CDvLuqvn-36" value="" style="rounded=1;whiteSpace=wrap;html=1;" vertex="1" parent="1">
                    <mxGeometry x="2224" y="1164" width="120" height="60" as="geometry"/>
                </mxCell>
                <mxCell id="W5GlPM54YrS_CDvLuqvn-37" value="" style="rounded=1;whiteSpace=wrap;html=1;" vertex="1" parent="1">
                    <mxGeometry x="2489" y="1064" width="120" height="60" as="geometry"/>
                </mxCell>
                <mxCell id="W5GlPM54YrS_CDvLuqvn-38" value="" style="rounded=1;whiteSpace=wrap;html=1;" vertex="1" parent="1">
                    <mxGeometry x="2498" y="1157" width="120" height="60" as="geometry"/>
                </mxCell>
                <mxCell id="W5GlPM54YrS_CDvLuqvn-39" value="" style="rounded=1;whiteSpace=wrap;html=1;" vertex="1" parent="1">
                    <mxGeometry x="2496" y="1288" width="120" height="60" as="geometry"/>
                </mxCell>
            </root>
        </mxGraphModel>
    </diagram>
    <diagram id="zcohm3vA99hhlxNvCXXW" name="第 2 页">
        <mxGraphModel dx="667" dy="431" grid="0" gridSize="10" guides="1" tooltips="1" connect="1" arrows="1" fold="1" page="1" pageScale="1" pageWidth="2336" pageHeight="1654" math="0" shadow="0">
            <root>
                <mxCell id="0"/>
                <mxCell id="1" parent="0"/>
            </root>
        </mxGraphModel>
    </diagram>
</mxfile>